<svg width="32" height="32" viewBox="0 0 32 32" fill="none" xmlns="http://www.w3.org/2000/svg">
<rect x="0.5" y="0.5" width="31" height="31" rx="15.5" stroke="black"/>
<path d="M15.9998 15.18C14.9003 15.18 13.9585 14.788 13.1745 14.004C12.3905 13.22 11.9989 12.2786 11.9998 11.18C12.0007 10.0813 12.3923 9.13909 13.1745 8.35331C13.9567 7.56753 14.8985 7.17687 15.9998 7.18131C17.1012 7.18576 18.0429 7.57687 18.8252 8.35464C19.6074 9.13242 19.9989 10.0746 19.9998 11.1813C20.0007 12.288 19.6092 13.2293 18.8252 14.0053C18.0412 14.7813 17.0994 15.172 15.9998 15.18ZM6.6665 24.8213V22.6266C6.6665 22.0764 6.8265 21.5618 7.1465 21.0826C7.46739 20.6026 7.8985 20.2302 8.43984 19.9653C9.6985 19.3618 10.9581 18.9093 12.2185 18.608C13.4781 18.3058 14.7385 18.1546 15.9998 18.1546C17.2612 18.1546 18.5221 18.3058 19.7825 18.608C21.0429 18.9102 22.3016 19.3626 23.5585 19.9653C24.1007 20.2302 24.5318 20.6026 24.8518 21.0826C25.1727 21.5618 25.3332 22.0764 25.3332 22.6266V24.8213H6.6665ZM7.99984 23.488H23.9998V22.6266C23.9998 22.3315 23.9043 22.0538 23.7132 21.7933C23.5229 21.5338 23.2594 21.3142 22.9225 21.1346C21.8256 20.6031 20.6941 20.196 19.5278 19.9133C18.3616 19.6306 17.1856 19.4889 15.9998 19.488C14.8141 19.4871 13.6381 19.6284 12.4718 19.912C11.3056 20.1955 10.1741 20.6026 9.07717 21.1333C8.73939 21.3129 8.47584 21.5324 8.2865 21.792C8.09539 22.0524 7.99984 22.3306 7.99984 22.6266V23.488ZM15.9998 13.848C16.7332 13.848 17.3612 13.5866 17.8838 13.064C18.4065 12.5413 18.6674 11.9129 18.6665 11.1786C18.6656 10.4444 18.4047 9.81687 17.8838 9.29598C17.3629 8.77509 16.7349 8.51376 15.9998 8.51198C15.2647 8.5102 14.6372 8.77153 14.1172 9.29598C13.5972 9.82042 13.3358 10.448 13.3332 11.1786C13.3305 11.9093 13.5918 12.5373 14.1172 13.0626C14.6425 13.588 15.2701 13.8489 15.9998 13.8453" fill="black"/>
</svg>
